<?xml version="1.0" standalone="no"?>
<!DOCTYPE svg PUBLIC "-//W3C//DTD SVG 20010904//EN"
 "http://www.w3.org/TR/2001/REC-SVG-20010904/DTD/svg10.dtd">
<svg version="1.0" xmlns="http://www.w3.org/2000/svg"
 width="1000.000000pt" height="726.000000pt" viewBox="0 0 1000.000000 726.000000"
 preserveAspectRatio="xMidYMid meet">

<g transform="translate(0.000000,726.000000) scale(0.100000,-0.100000)"
fill="#CC0000" stroke="none">
<path d="M6890 5893 c-544 -20 -514 -18 -559 -43 -50 -29 -78 -70 -193 -280
-101 -184 -292 -531 -358 -650 -25 -47 -140 -256 -254 -465 -115 -209 -212
-384 -216 -390 -4 -5 -117 -210 -250 -455 -155 -286 -254 -457 -276 -477 -27
-27 -42 -33 -78 -33 -74 0 -27 -57 -646 785 -420 572 -497 672 -536 696 l-39
24 -377 3 c-263 2 -384 0 -398 -8 -12 -6 -30 -26 -40 -43 -19 -31 -20 -62 -20
-1275 0 -1338 -2 -1284 49 -1312 13 -6 142 -10 349 -10 318 0 330 1 356 21
l26 20 0 695 c0 382 3 694 8 694 4 0 34 -39 67 -88 32 -48 149 -215 259 -372
110 -157 287 -411 394 -565 106 -154 211 -297 234 -317 22 -20 65 -47 96 -59
85 -32 255 -45 400 -31 143 13 205 32 263 76 51 38 86 101 379 681 100 198
233 459 295 580 174 340 364 714 454 890 44 88 87 169 95 180 14 18 15 -113
15 -1170 l0 -1190 26 -22 c26 -23 28 -23 360 -23 l334 0 28 24 28 24 3 1901
c2 2055 5 1943 -48 1971 -24 13 -109 18 -230 13z"/>
<path d="M2720 1395 l0 -405 75 0 75 0 2 268 3 267 44 -115 c24 -63 71 -184
103 -267 l60 -153 58 0 59 0 59 153 c33 83 79 204 103 267 l44 115 3 -267 2
-268 75 0 75 0 0 405 0 406 -101 -3 -102 -3 -106 -282 c-58 -156 -108 -283
-111 -283 -3 0 -53 127 -112 283 l-106 282 -101 3 -101 3 0 -406z"/>
<path d="M5330 1395 l0 -405 76 0 77 0 -7 268 c-5 229 -4 263 7 242 8 -14 56
-134 107 -268 l94 -243 59 3 59 3 102 263 c55 144 103 262 106 262 3 0 4 -119
2 -265 l-3 -265 76 0 75 0 0 405 0 405 -99 0 -99 0 -30 -77 c-16 -43 -64 -171
-107 -285 -43 -115 -81 -208 -84 -208 -3 0 -54 127 -112 283 l-106 282 -97 3
-96 3 0 -406z"/>
<path d="M6340 1395 l0 -405 255 0 255 0 0 70 0 70 -180 0 -180 0 0 95 0 95
160 0 160 0 0 75 0 75 -160 0 -160 0 0 90 0 90 180 0 180 0 0 75 0 75 -255 0
-255 0 0 -405z"/>
<path d="M7000 1395 l0 -405 75 0 75 0 0 405 0 405 -75 0 -75 0 0 -405z"/>
<path d="M3876 1566 c-224 -83 -259 -416 -57 -546 131 -84 314 -54 403 66 l29
38 -56 29 -56 28 -38 -34 c-62 -56 -143 -60 -209 -10 -30 23 -62 70 -62 93 0
7 72 10 215 10 l215 0 0 53 c0 114 -55 214 -144 259 -53 28 -183 35 -240 14z
m174 -121 c32 -16 70 -61 70 -81 0 -11 -28 -14 -140 -14 -90 0 -140 4 -140 10
0 20 34 63 65 81 36 23 105 25 145 4z"/>
<path d="M4372 1343 c3 -213 4 -231 25 -270 28 -51 66 -79 128 -93 70 -16 141
2 194 46 l41 36 0 -36 0 -36 70 0 70 0 0 290 0 291 -72 -3 -73 -3 0 -170 c0
-147 -3 -175 -19 -209 -34 -68 -120 -98 -175 -60 -43 31 -51 70 -51 264 l0
180 -71 0 -70 0 3 -227z"/>
</g>
<g transform="translate(0.000000,726.000000) scale(0.100000,-0.100000)"
fill="#FFFFFF" stroke="none">
<path d="M3022 828 c-7 -7 -12 -18 -12 -25 0 -7 -4 -13 -10 -13 -5 0 -10 -7
-10 -15 0 -8 5 -15 10 -15 6 0 10 -22 10 -50 0 -38 4 -50 15 -50 11 0 15 12
15 50 0 47 2 50 25 50 23 0 25 -3 25 -50 0 -38 4 -50 15 -50 12 0 15 14 15 65
l0 65 -42 0 c-38 1 -41 2 -25 14 9 7 17 18 17 25 0 15 -33 14 -48 -1z"/>
<path d="M3092 823 c2 -10 10 -18 18 -18 8 0 16 8 18 18 2 12 -3 17 -18 17
-15 0 -20 -5 -18 -17z"/>
<path d="M4580 811 c0 -28 -2 -29 -34 -24 -27 4 -36 1 -50 -18 -40 -58 -9
-109 67 -107 l47 1 0 88 c0 72 -3 89 -15 89 -10 0 -15 -10 -15 -29z m-5 -86
c0 -25 -4 -31 -27 -33 -19 -2 -28 2 -33 18 -8 27 12 52 39 48 16 -2 21 -10 21
-33z"/>
<path d="M4642 823 c2 -10 10 -18 18 -18 8 0 16 8 18 18 2 12 -3 17 -18 17
-15 0 -20 -5 -18 -17z"/>
<path d="M5070 811 c0 -28 -2 -29 -34 -24 -27 4 -36 1 -50 -18 -40 -58 -9
-109 67 -107 l47 1 0 88 c0 72 -3 89 -15 89 -10 0 -15 -10 -15 -29z m-5 -86
c0 -25 -4 -31 -27 -33 -19 -2 -28 2 -33 18 -8 27 12 52 39 48 16 -2 21 -10 21
-33z"/>
<path d="M5132 823 c2 -10 10 -18 18 -18 8 0 16 8 18 18 2 12 -3 17 -18 17
-15 0 -20 -5 -18 -17z"/>
<path d="M5350 750 c0 -72 3 -90 14 -90 11 0 16 14 18 48 3 39 6 47 23 47 17
0 20 -8 23 -47 2 -34 7 -48 18 -48 10 0 14 14 14 54 0 61 -15 81 -55 74 -22
-5 -25 -2 -25 23 0 19 -5 29 -15 29 -12 0 -15 -17 -15 -90z"/>
<path d="M5642 823 c2 -10 10 -18 18 -18 8 0 16 8 18 18 2 12 -3 17 -18 17
-15 0 -20 -5 -18 -17z"/>
<path d="M6380 752 l0 -89 52 -1 c64 -1 78 9 78 59 0 50 -23 73 -67 66 -31 -5
-33 -4 -33 24 0 19 -5 29 -15 29 -12 0 -15 -16 -15 -88z m95 -27 c0 -23 -5
-31 -21 -33 -30 -4 -48 21 -34 48 18 33 55 23 55 -15z"/>
<path d="M6690 750 c0 -73 3 -90 15 -90 12 0 15 17 15 90 0 73 -3 90 -15 90
-12 0 -15 -17 -15 -90z"/>
<path d="M3160 724 c0 -49 3 -64 14 -64 11 0 16 14 18 48 3 39 6 47 23 47 17
0 20 -8 23 -47 2 -34 7 -48 18 -48 19 0 20 103 1 118 -7 6 -32 11 -55 10 l-42
0 0 -64z"/>
<path d="M3311 776 c-15 -18 2 -30 26 -18 20 10 43 5 43 -9 0 -5 -13 -9 -29
-9 -34 0 -54 -20 -49 -52 3 -20 9 -23 56 -25 l52 -1 0 52 c0 28 -5 57 -12 64
-16 16 -73 15 -87 -2z m67 -73 c5 -17 -26 -29 -40 -15 -6 6 -7 15 -3 22 9 14
37 9 43 -7z"/>
<path d="M3450 724 c0 -49 3 -64 14 -64 11 0 16 14 18 48 3 39 6 47 23 47 17
0 20 -8 23 -47 2 -34 7 -48 18 -48 19 0 20 103 1 118 -7 6 -32 11 -55 10 l-42
0 0 -64z"/>
<path d="M3607 772 c-26 -28 -22 -77 8 -100 14 -11 25 -25 25 -31 0 -6 6 -11
13 -12 6 0 3 -4 -8 -9 -19 -7 -19 -8 -2 -15 26 -11 45 10 31 33 -9 13 -7 19 9
27 29 15 17 30 -23 30 -32 0 -35 2 -35 30 0 29 1 30 43 27 44 -3 55 10 23 28
-30 15 -66 12 -84 -8z"/>
<path d="M3741 776 c-15 -18 2 -30 26 -18 20 10 43 5 43 -9 0 -5 -13 -9 -29
-9 -34 0 -54 -20 -49 -52 3 -20 9 -23 56 -25 l52 -1 0 52 c0 28 -5 57 -12 64
-16 16 -73 15 -87 -2z m67 -73 c5 -17 -26 -29 -40 -15 -6 6 -7 15 -3 22 9 14
37 9 43 -7z"/>
<path d="M3880 775 c-18 -22 -5 -44 37 -61 27 -12 33 -18 23 -24 -8 -5 -22 -4
-32 1 -25 13 -43 2 -27 -17 15 -18 73 -18 89 1 18 22 5 44 -37 61 -39 17 -31
35 13 26 27 -5 33 12 8 22 -27 11 -61 7 -74 -9z"/>
<path d="M4070 768 c-24 -26 -26 -56 -4 -86 22 -32 104 -29 104 4 0 16 -21 19
-36 4 -14 -14 -44 -2 -44 16 0 10 13 14 45 14 49 0 56 10 29 48 -20 29 -67 29
-94 0z m57 -26 c-34 -4 -48 5 -27 18 8 5 22 4 34 -3 20 -11 20 -12 -7 -15z"/>
<path d="M4200 723 c0 -49 3 -63 15 -63 10 0 15 10 15 31 0 37 16 69 34 69 17
0 26 -22 26 -66 0 -23 5 -34 14 -34 11 0 16 14 18 48 3 39 6 47 23 47 17 0 20
-8 23 -47 2 -34 7 -48 18 -48 18 0 20 100 2 118 -15 15 -55 16 -63 2 -4 -7
-11 -8 -18 -1 -7 5 -33 9 -59 9 l-48 -1 0 -64z"/>
<path d="M4640 725 c0 -51 3 -65 15 -65 12 0 15 14 15 65 0 51 -3 65 -15 65
-12 0 -15 -14 -15 -65z"/>
<path d="M4721 781 c-20 -13 -4 -34 17 -22 11 6 24 5 37 -2 18 -11 16 -12 -19
-17 -45 -6 -67 -31 -50 -57 8 -13 26 -18 63 -20 l51 -1 0 48 c0 31 -6 54 -16
64 -17 17 -61 21 -83 7z m63 -70 c8 -13 -21 -34 -39 -27 -20 7 -8 36 15 36 11
0 21 -4 24 -9z"/>
<path d="M5130 725 c0 -51 3 -65 15 -65 12 0 15 14 15 65 0 51 -3 65 -15 65
-12 0 -15 -14 -15 -65z"/>
<path d="M5200 723 c0 -49 3 -63 15 -63 10 0 15 10 15 34 0 47 9 66 30 66 21
0 30 -19 30 -66 0 -24 5 -34 15 -34 18 0 21 63 5 104 -8 22 -14 25 -60 24
l-50 -1 0 -64z"/>
<path d="M5510 768 c-24 -26 -26 -56 -4 -86 22 -32 104 -29 104 4 0 16 -21 19
-36 4 -14 -14 -44 -2 -44 16 0 10 13 14 45 14 49 0 56 10 29 48 -20 29 -67 29
-94 0z m57 -26 c-34 -4 -48 5 -27 18 8 5 22 4 34 -3 20 -11 20 -12 -7 -15z"/>
<path d="M5640 725 c0 -51 3 -65 15 -65 12 0 15 14 15 65 0 51 -3 65 -15 65
-12 0 -15 -14 -15 -65z"/>
<path d="M5710 724 c0 -50 3 -64 15 -64 10 0 15 10 15 34 0 47 9 66 31 66 10
0 19 6 19 14 0 9 -13 13 -40 13 l-40 0 0 -63z"/>
<path d="M5827 772 c-22 -25 -21 -75 1 -95 42 -39 112 -9 112 46 0 57 -77 89
-113 49z m73 -27 c20 -25 8 -50 -25 -50 -31 0 -43 20 -31 51 7 18 40 18 56 -1z"/>
<path d="M6020 723 c0 -49 3 -63 15 -63 10 0 15 10 15 33 0 41 21 73 44 64 11
-5 16 -19 16 -52 0 -33 4 -45 15 -45 19 0 21 102 3 118 -7 6 -34 10 -60 10
l-48 -1 0 -64z"/>
<path d="M6187 773 c-42 -48 -15 -113 48 -113 58 0 86 69 45 110 -25 25 -72
26 -93 3z m74 -29 c17 -21 0 -49 -32 -49 -24 0 -36 23 -25 51 7 19 40 18 57
-2z"/>
<path d="M6550 770 c-41 -41 -13 -110 44 -110 64 0 94 55 56 103 -26 33 -71
36 -100 7z m79 -27 c21 -38 -31 -72 -58 -39 -9 11 -10 20 -1 35 13 25 45 27
59 4z"/>
<path d="M6773 784 c-7 -3 -13 -17 -13 -30 0 -19 8 -29 37 -40 27 -12 33 -18
23 -24 -8 -5 -22 -4 -32 1 -25 13 -43 2 -27 -17 6 -8 26 -14 44 -14 62 0 75
57 17 74 -18 5 -31 14 -29 20 3 6 10 10 16 9 6 -2 17 -4 24 -5 6 -2 12 4 12
12 0 15 -47 24 -72 14z"/>
<path d="M6897 772 c-22 -25 -21 -75 1 -95 42 -39 112 -9 112 46 0 57 -77 89
-113 49z m73 -27 c20 -25 8 -50 -25 -50 -31 0 -43 20 -31 51 7 18 40 18 56 -1z"/>
<path d="M4852 664 l1 -37 19 23 c21 26 19 43 -5 48 -13 3 -16 -4 -15 -34z"/>
</g>
</svg>
