<?xml version="1.0" standalone="no"?>
<!DOCTYPE svg PUBLIC "-//W3C//DTD SVG 20010904//EN"
 "http://www.w3.org/TR/2001/REC-SVG-20010904/DTD/svg10.dtd">
<svg version="1.0" xmlns="http://www.w3.org/2000/svg"
 width="1024.000000pt" height="1024.000000pt" viewBox="0 0 1024.000000 1024.000000"
 preserveAspectRatio="xMidYMid meet">

<g transform="translate(0.000000,1024.000000) scale(0.100000,-0.100000)"
fill="#CC0000" stroke="none">
<path d="M7790 8139 c-388 -11 -414 -13 -487 -49 -39 -19 -75 -47 -96 -73 -37
-45 -124 -198 -399 -702 -97 -176 -235 -428 -308 -560 -73 -132 -222 -404
-332 -605 -174 -317 -269 -489 -383 -695 -132 -237 -299 -540 -350 -635 -34
-63 -129 -236 -210 -385 -81 -148 -172 -317 -203 -374 -82 -150 -139 -192
-243 -178 -22 3 -56 16 -75 29 -35 23 -168 196 -539 703 -109 149 -249 338
-310 420 -62 83 -233 314 -380 515 -384 521 -412 558 -454 584 -86 55 -99 56
-690 56 -621 0 -597 3 -638 -80 l-23 -44 0 -1909 c0 -1856 1 -1909 19 -1945
38 -74 19 -72 581 -72 428 0 505 2 530 15 63 33 60 -28 60 1119 0 575 3 1047
8 1050 4 2 50 -57 102 -132 86 -124 421 -603 911 -1302 102 -146 237 -338 299
-428 62 -90 132 -179 154 -198 53 -45 122 -79 221 -106 73 -20 102 -22 350
-22 304 0 394 13 516 74 108 55 139 96 293 396 180 348 541 1056 866 1699 143
281 342 672 445 870 102 198 220 429 263 512 42 84 80 153 85 153 4 0 4 -804
1 -1787 l-7 -1788 21 -47 c36 -81 13 -78 584 -78 487 0 504 1 536 20 67 41 62
-202 62 2982 l0 2893 -23 40 c-39 69 -63 75 -292 73 -110 0 -319 -5 -465 -9z"/>
</g>
</svg>
