<?xml version="1.0" standalone="no"?>
<!DOCTYPE svg PUBLIC "-//W3C//DTD SVG 20010904//EN"
 "http://www.w3.org/TR/2001/REC-SVG-20010904/DTD/svg10.dtd">
<svg version="1.0" xmlns="http://www.w3.org/2000/svg"
 width="670.000000pt" height="726.000000pt" viewBox="0 0 670.000000 726.000000"
 preserveAspectRatio="xMidYMid meet">

<g transform="translate(0.000000,726.000000) scale(0.100000,-0.100000)"
fill="#CC0000" stroke="none">
<path d="M5330 5893 c-544 -20 -514 -18 -559 -43 -50 -29 -78 -70 -193 -280
-101 -184 -292 -531 -358 -650 -25 -47 -140 -256 -254 -465 -115 -209 -212
-384 -216 -390 -4 -5 -117 -210 -250 -455 -155 -286 -254 -457 -276 -477 -27
-27 -42 -33 -78 -33 -74 0 -27 -57 -646 785 -420 572 -497 672 -536 696 l-39
24 -377 3 c-263 2 -384 0 -398 -8 -12 -6 -30 -26 -40 -43 -19 -31 -20 -62 -20
-1275 0 -1338 -2 -1284 49 -1312 13 -6 142 -10 349 -10 318 0 330 1 356 21
l26 20 0 695 c0 382 3 694 8 694 4 0 34 -39 67 -88 32 -48 149 -215 259 -372
110 -157 287 -411 394 -565 106 -154 211 -297 234 -317 22 -20 65 -47 96 -59
85 -32 255 -45 400 -31 143 13 205 32 263 76 51 38 86 101 379 681 100 198
233 459 295 580 174 340 364 714 454 890 44 88 87 169 95 180 14 18 15 -113
15 -1170 l0 -1190 26 -22 c26 -23 28 -23 360 -23 l334 0 28 24 28 24 3 1901
c2 2055 5 1943 -48 1971 -24 13 -109 18 -230 13z"/>
<path d="M1160 1395 l0 -405 75 0 75 0 2 268 3 267 44 -115 c24 -63 71 -184
103 -267 l60 -153 58 0 59 0 59 153 c33 83 79 204 103 267 l44 115 3 -267 2
-268 75 0 75 0 0 405 0 406 -101 -3 -102 -3 -106 -282 c-58 -156 -108 -283
-111 -283 -3 0 -53 127 -112 283 l-106 282 -101 3 -101 3 0 -406z"/>
<path d="M3770 1395 l0 -405 76 0 77 0 -7 268 c-5 229 -4 263 7 242 8 -14 56
-134 107 -268 l94 -243 59 3 59 3 102 263 c55 144 103 262 106 262 3 0 4 -119
2 -265 l-3 -265 76 0 75 0 0 405 0 405 -99 0 -99 0 -30 -77 c-16 -43 -64 -171
-107 -285 -43 -115 -81 -208 -84 -208 -3 0 -54 127 -112 283 l-106 282 -97 3
-96 3 0 -406z"/>
<path d="M4780 1395 l0 -405 255 0 255 0 0 70 0 70 -180 0 -180 0 0 95 0 95
160 0 160 0 0 75 0 75 -160 0 -160 0 0 90 0 90 180 0 180 0 0 75 0 75 -255 0
-255 0 0 -405z"/>
<path d="M5440 1395 l0 -405 75 0 75 0 0 405 0 405 -75 0 -75 0 0 -405z"/>
<path d="M2316 1566 c-224 -83 -259 -416 -57 -546 131 -84 314 -54 403 66 l29
38 -56 29 -56 28 -38 -34 c-62 -56 -143 -60 -209 -10 -30 23 -62 70 -62 93 0
7 72 10 215 10 l215 0 0 53 c0 114 -55 214 -144 259 -53 28 -183 35 -240 14z
m174 -121 c32 -16 70 -61 70 -81 0 -11 -28 -14 -140 -14 -90 0 -140 4 -140 10
0 20 34 63 65 81 36 23 105 25 145 4z"/>
<path d="M2812 1343 c3 -213 4 -231 25 -270 28 -51 66 -79 128 -93 70 -16 141
2 194 46 l41 36 0 -36 0 -36 70 0 70 0 0 290 0 291 -72 -3 -73 -3 0 -170 c0
-147 -3 -175 -19 -209 -34 -68 -120 -98 -175 -60 -43 31 -51 70 -51 264 l0
180 -71 0 -70 0 3 -227z"/>
</g>
</svg>
